<svg width="6" height="12" viewBox="0 0 6 12" fill="none" xmlns="http://www.w3.org/2000/svg">
<path d="M1.85277 2.72854C1.85277 3.00312 1.85277 4.22866 1.85277 4.22866H0.756958V6.06301H1.85277V11.514H4.1038V6.06316H5.61434C5.61434 6.06316 5.75581 5.1836 5.82439 4.2219C5.62778 4.2219 4.11231 4.2219 4.11231 4.2219C4.11231 4.2219 4.11231 3.15473 4.11231 2.96768C4.11231 2.78022 4.35774 2.52807 4.60031 2.52807C4.84244 2.52807 5.35345 2.52807 5.82676 2.52807C5.82676 2.27832 5.82676 1.41538 5.82676 0.618408C5.19491 0.618408 4.47607 0.618408 4.15921 0.618408C1.79713 0.618282 1.85277 2.45445 1.85277 2.72854Z" fill="white"/>
</svg>
