<svg width="49" height="23" viewBox="0 0 49 23" fill="none" xmlns="http://www.w3.org/2000/svg">
<path d="M42.0029 22H7.26491C6.92745 22 6.62749 21.7851 6.51817 21.4657L1.32527 6.29874C1.18432 5.88527 1.40387 5.43605 1.81632 5.294C1.94282 5.25103 2.07473 5.24017 2.19715 5.26189C2.48266 5.27862 2.74874 5.45143 2.87207 5.73191C3.51401 7.19174 5.79762 11.9047 8.46161 11.9047C8.49458 11.9047 8.52801 11.9038 8.56189 11.9019C10.1688 11.8305 12.6819 9.97344 15.5293 1.53743C15.6381 1.21624 15.9386 1 16.2769 1C16.6157 1 16.9162 1.21624 17.025 1.53743C17.9972 4.41412 21.2557 11.8581 24.6393 11.8581C24.6484 11.8581 24.6569 11.8576 24.6664 11.8576C26.2706 11.8382 28.7372 10.0354 31.3786 1.55507C31.482 1.22438 31.7869 1 32.1325 1H32.1402C32.489 1.00362 32.7939 1.23524 32.8906 1.57045C33.6979 4.35441 36.5611 11.6463 40.073 11.9508C42.1249 12.12 44.3999 9.79475 46.646 5.20172C46.8285 4.82669 47.2721 4.65796 47.6575 4.81855C48.0419 4.97824 48.2371 5.40981 48.1024 5.8052L42.7501 21.4657C42.6403 21.7856 42.3403 22 42.0029 22ZM7.8287 20.4189H41.4382L44.5313 11.3686C43.0365 12.9528 41.5186 13.6594 39.9357 13.5264C36.0461 13.1876 33.3771 7.57491 32.1362 4.27569C29.9443 10.4027 27.4971 13.4052 24.6845 13.4382C24.6691 13.4382 24.6547 13.4391 24.6393 13.4391C20.7086 13.4391 17.6742 7.40482 16.2995 4.07619C13.954 10.2743 11.4368 13.3559 8.63192 13.4817C7.19399 13.5373 5.94173 12.8198 4.8634 11.7554L7.8287 20.4189Z" fill="#A07B50" stroke="#151313" stroke-width="0.8"/>
</svg>
