<svg width="16" height="11" viewBox="0 0 16 11" fill="none" xmlns="http://www.w3.org/2000/svg">
<path d="M14.1083 4.62013C14.953 4.55023 15.526 4.16507 15.7465 3.64246C15.4418 3.8302 14.4959 4.03488 13.9735 3.83995C13.9479 3.71685 13.9193 3.59992 13.8912 3.49435C13.4931 2.02842 12.1303 0.847407 10.7022 0.99008C10.8178 0.943294 10.9349 0.899734 11.0518 0.860629C11.209 0.804163 12.1312 0.65367 11.986 0.327186C11.8636 0.0400171 10.7368 0.544211 10.5247 0.610111C10.8047 0.504474 11.2679 0.322767 11.3175 0C10.8884 0.059026 10.4672 0.262478 10.1418 0.558309C10.2593 0.431454 10.3484 0.276858 10.3673 0.110477C9.22293 0.843725 8.55443 2.322 8.01342 3.75599C7.58862 3.34309 7.21211 3.01794 6.87434 2.83739C5.92678 2.32776 4.79382 1.79603 3.01533 1.13387C2.96074 1.72403 3.30634 2.50873 4.30219 3.03056C4.08643 3.00159 3.69187 3.06623 3.37631 3.14202C3.50482 3.8181 3.92452 4.37511 5.06074 4.64447C4.54148 4.67884 4.27313 4.79734 4.02992 5.05277C4.26642 5.52298 4.84351 6.07638 5.88164 5.96278C4.72745 6.46171 5.41102 7.38568 6.35019 7.24789C4.74805 8.90759 2.22209 8.78561 0.771606 7.39743C4.55872 12.5731 12.791 10.4583 14.0179 5.47318C14.937 5.48104 15.4774 5.15385 15.8124 4.79314C15.2828 4.88327 14.5153 4.79012 14.1083 4.62013Z" fill="white"/>
</svg>
